<?xml version="1.0" encoding="UTF-8" standalone="no"?><svg xmlns="http://www.w3.org/2000/svg" xmlns:xlink="http://www.w3.org/1999/xlink" clip-rule="evenodd" stroke-miterlimit="10" viewBox="0 0 530 111"><desc>SVG generated by Keynote</desc><defs></defs><g transform="matrix(1.00, 0.00, -0.00, -1.00, 0.0, 111.0)"><image xlink:href="../../2A7FDE6C-4831-498D-A563-12BDE78A7140/assets/9452BD771D5C910D2B26B1893EC1A6DA.png" width="527.00" height="105.00" transform="matrix(1.00, 0.00, -0.00, -1.00, 2.0, 107.0)"></image><text xml:space="preserve" font-family="Helvetica-Light,Helvetica" font-size="100.0" fill="#FEFFFF" transform="matrix(1.00, 0.00, -0.00, -1.00, 3.4, 35.7)">@</text><text xml:space="preserve" font-family="Helvetica-Light,Helvetica" font-size="100.0" fill="#FEFFFF" transform="matrix(1.00, 0.00, -0.00, -1.00, 83.4, 35.7)">n</text><text xml:space="preserve" font-family="Helvetica-Light,Helvetica" font-size="100.0" fill="#FEFFFF" transform="matrix(1.00, 0.00, -0.00, -1.00, 139.0, 35.7)">e</text><text xml:space="preserve" font-family="Helvetica-Light,Helvetica" font-size="100.0" fill="#FEFFFF" transform="matrix(1.00, 0.00, -0.00, -1.00, 194.6, 35.7)">x</text><text xml:space="preserve" font-family="Helvetica-Light,Helvetica" font-size="100.0" fill="#FEFFFF" transform="matrix(1.00, 0.00, -0.00, -1.00, 244.6, 35.7)">x</text><text xml:space="preserve" font-family="Helvetica-Light,Helvetica" font-size="100.0" fill="#FEFFFF" transform="matrix(1.00, 0.00, -0.00, -1.00, 294.6, 35.7)">y</text><text xml:space="preserve" font-family="Helvetica-Light,Helvetica" font-size="100.0" fill="#FEFFFF" transform="matrix(1.00, 0.00, -0.00, -1.00, 344.6, 35.7)">l</text><text xml:space="preserve" font-family="Helvetica-Light,Helvetica" font-size="100.0" fill="#FEFFFF" transform="matrix(1.00, 0.00, -0.00, -1.00, 366.8, 35.7)">o</text><text xml:space="preserve" font-family="Helvetica-Light,Helvetica" font-size="100.0" fill="#FEFFFF" transform="matrix(1.00, 0.00, -0.00, -1.00, 422.4, 35.7)">v</text><text xml:space="preserve" font-family="Helvetica-Light,Helvetica" font-size="100.0" fill="#FEFFFF" transform="matrix(1.00, 0.00, -0.00, -1.00, 472.4, 35.7)">e</text></g></svg>