<?xml version="1.0" encoding="UTF-8" standalone="no"?><svg xmlns="http://www.w3.org/2000/svg" xmlns:xlink="http://www.w3.org/1999/xlink" clip-rule="evenodd" stroke-miterlimit="10" viewBox="0 0 1920 1080"><desc>SVG generated by Keynote</desc><defs></defs><g transform="matrix(1.00, 0.00, -0.00, -1.00, 0.0, 1080.0)"><path d="M 0.0 1080.0 L 1920.0 1080.0 L 1920.0 0.0 L 0.0 0.0 Z M 0.0 1080.0 " fill="#000000"></path><image xlink:href="../../C9F87468-2352-4160-BDB5-CD8D989A82BE/assets/07360403DB9E3FFEE9B4D1FD8C8BC1AC.jpeg" width="1080.00" height="667.00" transform="matrix(1.79, 0.00, -0.00, -1.79, -13.3, 1151.8)"></image><image xlink:href="../../C9F87468-2352-4160-BDB5-CD8D989A82BE/assets/3E34A8E43408A84C8E1D62495D46F2BE.png" width="1640.00" height="85.00" transform="matrix(1.00, 0.00, -0.00, -1.00, 141.0, 994.0)"></image><text xml:space="preserve" font-family="Helvetica-Light,Helvetica" font-size="100.8" fill="#FEFFFF" transform="matrix(1.00, 0.00, -0.00, -1.00, 137.5, 924.2)">“</text><text xml:space="preserve" font-family="Helvetica-Light,Helvetica" font-size="100.8" fill="#FEFFFF" transform="matrix(1.00, 0.00, -0.00, -1.00, 176.7, 924.2)">I</text><text xml:space="preserve" font-family="Helvetica-Light,Helvetica" font-size="100.8" fill="#FEFFFF" transform="matrix(1.00, 0.00, -0.00, -1.00, 204.8, 924.2)">t</text><text xml:space="preserve" font-family="Helvetica-Light,Helvetica" font-size="100.8" fill="#FEFFFF" transform="matrix(1.00, 0.00, -0.00, -1.00, 232.8, 924.2)">’</text><text xml:space="preserve" font-family="Helvetica-Light,Helvetica" font-size="100.8" fill="#FEFFFF" transform="matrix(1.00, 0.00, -0.00, -1.00, 247.7, 924.2)">s</text><text xml:space="preserve" font-family="Helvetica-Light,Helvetica" font-size="100.8" fill="#FEFFFF" transform="matrix(1.00, 0.00, -0.00, -1.00, 298.1, 924.2)"> </text><text xml:space="preserve" font-family="Helvetica-Light,Helvetica" font-size="100.8" fill="#FEFFFF" transform="matrix(1.00, 0.00, -0.00, -1.00, 326.1, 924.2)">A</text><text xml:space="preserve" font-family="Helvetica-Light,Helvetica" font-size="100.8" fill="#FEFFFF" transform="matrix(1.00, 0.00, -0.00, -1.00, 393.4, 924.2)">l</text><text xml:space="preserve" font-family="Helvetica-Light,Helvetica" font-size="100.8" fill="#FEFFFF" transform="matrix(1.00, 0.00, -0.00, -1.00, 415.7, 924.2)">l</text><text xml:space="preserve" font-family="Helvetica-Light,Helvetica" font-size="100.8" fill="#FEFFFF" transform="matrix(1.00, 0.00, -0.00, -1.00, 438.1, 924.2)"> </text><text xml:space="preserve" font-family="Helvetica-Light,Helvetica" font-size="100.8" fill="#FEFFFF" transform="matrix(1.00, 0.00, -0.00, -1.00, 466.1, 924.2)">R</text><text xml:space="preserve" font-family="Helvetica-Light,Helvetica" font-size="100.8" fill="#FEFFFF" transform="matrix(1.00, 0.00, -0.00, -1.00, 533.4, 924.2)">e</text><text xml:space="preserve" font-family="Helvetica-Light,Helvetica" font-size="100.8" fill="#FEFFFF" transform="matrix(1.00, 0.00, -0.00, -1.00, 589.4, 924.2)">l</text><text xml:space="preserve" font-family="Helvetica-Light,Helvetica" font-size="100.8" fill="#FEFFFF" transform="matrix(1.00, 0.00, -0.00, -1.00, 611.8, 924.2)">a</text><text xml:space="preserve" font-family="Helvetica-Light,Helvetica" font-size="100.8" fill="#FEFFFF" transform="matrix(1.00, 0.00, -0.00, -1.00, 667.8, 924.2)">t</text><text xml:space="preserve" font-family="Helvetica-Light,Helvetica" font-size="100.8" fill="#FEFFFF" transform="matrix(1.00, 0.00, -0.00, -1.00, 695.9, 924.2)">i</text><text xml:space="preserve" font-family="Helvetica-Light,Helvetica" font-size="100.8" fill="#FEFFFF" transform="matrix(1.00, 0.00, -0.00, -1.00, 718.2, 924.2)">v</text><text xml:space="preserve" font-family="Helvetica-Light,Helvetica" font-size="100.8" fill="#FEFFFF" transform="matrix(1.00, 0.00, -0.00, -1.00, 768.6, 924.2)">e</text><text xml:space="preserve" font-family="Helvetica-Light,Helvetica" font-size="100.8" fill="#FEFFFF" transform="matrix(1.00, 0.00, -0.00, -1.00, 824.7, 924.2)">!</text><text xml:space="preserve" font-family="Helvetica-Light,Helvetica" font-size="100.8" fill="#FEFFFF" transform="matrix(1.00, 0.00, -0.00, -1.00, 858.2, 924.2)">”</text><text xml:space="preserve" font-family="Helvetica-Light,Helvetica" font-size="100.8" fill="#FEFFFF" transform="matrix(1.00, 0.00, -0.00, -1.00, 897.5, 924.2)"> </text><text xml:space="preserve" font-family="Helvetica-Light,Helvetica" font-size="100.8" fill="#FEFFFF" transform="matrix(1.00, 0.00, -0.00, -1.00, 925.5, 924.2)">—</text><text xml:space="preserve" font-family="Helvetica-Light,Helvetica" font-size="100.8" fill="#FEFFFF" transform="matrix(1.00, 0.00, -0.00, -1.00, 1026.3, 924.2)"> </text><text xml:space="preserve" font-family="Helvetica-Light,Helvetica" font-size="100.8" fill="#FEFFFF" transform="matrix(1.00, 0.00, -0.00, -1.00, 1054.3, 924.2)">s</text><text xml:space="preserve" font-family="Helvetica-Light,Helvetica" font-size="100.8" fill="#FEFFFF" transform="matrix(1.00, 0.00, -0.00, -1.00, 1104.7, 924.2)">a</text><text xml:space="preserve" font-family="Helvetica-Light,Helvetica" font-size="100.8" fill="#FEFFFF" transform="matrix(1.00, 0.00, -0.00, -1.00, 1160.7, 924.2)">m</text><text xml:space="preserve" font-family="Helvetica-Light,Helvetica" font-size="100.8" fill="#FEFFFF" transform="matrix(1.00, 0.00, -0.00, -1.00, 1244.7, 924.2)">c</text><text xml:space="preserve" font-family="Helvetica-Light,Helvetica" font-size="100.8" fill="#FEFFFF" transform="matrix(1.00, 0.00, -0.00, -1.00, 1300.8, 924.2)">h</text><text xml:space="preserve" font-family="Helvetica-Light,Helvetica" font-size="100.8" fill="#FEFFFF" transform="matrix(1.00, 0.00, -0.00, -1.00, 1356.8, 924.2)">i</text><text xml:space="preserve" font-family="Helvetica-Light,Helvetica" font-size="100.8" fill="#FEFFFF" transform="matrix(1.00, 0.00, -0.00, -1.00, 1379.2, 924.2)">l</text><text xml:space="preserve" font-family="Helvetica-Light,Helvetica" font-size="100.8" fill="#FEFFFF" transform="matrix(1.00, 0.00, -0.00, -1.00, 1401.6, 924.2)">l</text><text xml:space="preserve" font-family="Helvetica-Light,Helvetica" font-size="100.8" fill="#FEFFFF" transform="matrix(1.00, 0.00, -0.00, -1.00, 1423.9, 924.2)">i</text><text xml:space="preserve" font-family="Helvetica-Light,Helvetica" font-size="100.8" fill="#FEFFFF" transform="matrix(1.00, 0.00, -0.00, -1.00, 1446.3, 924.2)">a</text><text xml:space="preserve" font-family="Helvetica-Light,Helvetica" font-size="100.8" fill="#FEFFFF" transform="matrix(1.00, 0.00, -0.00, -1.00, 1502.4, 924.2)">n</text><text xml:space="preserve" font-family="Helvetica-Light,Helvetica" font-size="100.8" fill="#FEFFFF" transform="matrix(1.00, 0.00, -0.00, -1.00, 1558.4, 924.2)">.</text><text xml:space="preserve" font-family="Helvetica-Light,Helvetica" font-size="100.8" fill="#FEFFFF" transform="matrix(1.00, 0.00, -0.00, -1.00, 1586.4, 924.2)">c</text><text xml:space="preserve" font-family="Helvetica-Light,Helvetica" font-size="100.8" fill="#FEFFFF" transform="matrix(1.00, 0.00, -0.00, -1.00, 1642.5, 924.2)">o</text><text xml:space="preserve" font-family="Helvetica-Light,Helvetica" font-size="100.8" fill="#FEFFFF" transform="matrix(1.00, 0.00, -0.00, -1.00, 1698.5, 924.2)">m</text><image xlink:href="../../C9F87468-2352-4160-BDB5-CD8D989A82BE/assets/FA069D08CFF980F704F91344BDC36746.png" width="32.00" height="33.00" transform="matrix(1.00, 0.00, -0.00, -1.00, 136.0, 615.0)"></image><text xml:space="preserve" font-family="Helvetica-Light,Helvetica" font-size="60.0" fill="#FEFFFF" transform="matrix(1.00, 0.00, -0.00, -1.00, 137.0, 584.8)">•</text><image xlink:href="../../C9F87468-2352-4160-BDB5-CD8D989A82BE/assets/F8085E4E71F6B00B3F2EC43D28905532.png" width="690.00" height="86.00" transform="matrix(1.00, 0.00, -0.00, -1.00, 182.0, 634.0)"></image><text xml:space="preserve" font-family="Helvetica-Light,Helvetica" font-size="80.0" fill="#FEFFFF" transform="matrix(1.00, 0.00, -0.00, -1.00, 181.0, 577.4)">N</text><text xml:space="preserve" font-family="Helvetica-Light,Helvetica" font-size="80.0" fill="#FEFFFF" transform="matrix(1.00, 0.00, -0.00, -1.00, 238.8, 577.4)">o</text><text xml:space="preserve" font-family="Helvetica-Light,Helvetica" font-size="80.0" fill="#FEFFFF" transform="matrix(1.00, 0.00, -0.00, -1.00, 283.2, 577.4)"> </text><text xml:space="preserve" font-family="Helvetica-Light,Helvetica" font-size="80.0" fill="#FEFFFF" transform="matrix(1.00, 0.00, -0.00, -1.00, 305.5, 577.4)">ﬁ</text><text xml:space="preserve" font-family="Helvetica-Light,Helvetica" font-size="80.0" fill="#FEFFFF" transform="matrix(1.00, 0.00, -0.00, -1.00, 345.5, 577.4)">x</text><text xml:space="preserve" font-family="Helvetica-Light,Helvetica" font-size="80.0" fill="#FEFFFF" transform="matrix(1.00, 0.00, -0.00, -1.00, 385.5, 577.4)">e</text><text xml:space="preserve" font-family="Helvetica-Light,Helvetica" font-size="80.0" fill="#FEFFFF" transform="matrix(1.00, 0.00, -0.00, -1.00, 430.0, 577.4)">d</text><text xml:space="preserve" font-family="Helvetica-Light,Helvetica" font-size="80.0" fill="#FEFFFF" transform="matrix(1.00, 0.00, -0.00, -1.00, 478.8, 577.4)">-</text><text xml:space="preserve" font-family="Helvetica-Light,Helvetica" font-size="80.0" fill="#FEFFFF" transform="matrix(1.00, 0.00, -0.00, -1.00, 505.5, 577.4)">p</text><text xml:space="preserve" font-family="Helvetica-Light,Helvetica" font-size="80.0" fill="#FEFFFF" transform="matrix(1.00, 0.00, -0.00, -1.00, 554.4, 577.4)">i</text><text xml:space="preserve" font-family="Helvetica-Light,Helvetica" font-size="80.0" fill="#FEFFFF" transform="matrix(1.00, 0.00, -0.00, -1.00, 572.1, 577.4)">t</text><text xml:space="preserve" font-family="Helvetica-Light,Helvetica" font-size="80.0" fill="#FEFFFF" transform="matrix(1.00, 0.00, -0.00, -1.00, 594.4, 577.4)">c</text><text xml:space="preserve" font-family="Helvetica-Light,Helvetica" font-size="80.0" fill="#FEFFFF" transform="matrix(1.00, 0.00, -0.00, -1.00, 638.8, 577.4)">h</text><text xml:space="preserve" font-family="Helvetica-Light,Helvetica" font-size="80.0" fill="#FEFFFF" transform="matrix(1.00, 0.00, -0.00, -1.00, 683.3, 577.4)"> </text><text xml:space="preserve" font-family="Helvetica-Light,Helvetica" font-size="80.0" fill="#FEFFFF" transform="matrix(1.00, 0.00, -0.00, -1.00, 705.6, 577.4)">k</text><text xml:space="preserve" font-family="Helvetica-Light,Helvetica" font-size="80.0" fill="#FEFFFF" transform="matrix(1.00, 0.00, -0.00, -1.00, 745.6, 577.4)">e</text><text xml:space="preserve" font-family="Helvetica-Light,Helvetica" font-size="80.0" fill="#FEFFFF" transform="matrix(1.00, 0.00, -0.00, -1.00, 790.0, 577.4)">y</text><text xml:space="preserve" font-family="Helvetica-Light,Helvetica" font-size="80.0" fill="#FEFFFF" transform="matrix(1.00, 0.00, -0.00, -1.00, 830.0, 577.4)">s</text><text xml:space="preserve" font-family="Helvetica-Light,Helvetica" font-size="80.0" fill="#FEFFFF" transform="matrix(1.00, 0.00, -0.00, -1.00, 870.0, 577.4)"> </text><image xlink:href="../../C9F87468-2352-4160-BDB5-CD8D989A82BE/assets/FA069D08CFF980F704F91344BDC36746.png" width="32.00" height="33.00" transform="matrix(1.00, 0.00, -0.00, -1.00, 136.0, 474.0)"></image><text xml:space="preserve" font-family="Helvetica-Light,Helvetica" font-size="60.0" fill="#FEFFFF" transform="matrix(1.00, 0.00, -0.00, -1.00, 137.0, 443.8)">•</text><image xlink:href="../../C9F87468-2352-4160-BDB5-CD8D989A82BE/assets/9A64C6180EB894EB584DC1BE49F1BABC.png" width="717.00" height="86.00" transform="matrix(1.00, 0.00, -0.00, -1.00, 182.0, 493.0)"></image><text xml:space="preserve" font-family="Helvetica-Light,Helvetica" font-size="80.0" fill="#FEFFFF" transform="matrix(1.00, 0.00, -0.00, -1.00, 181.0, 436.4)">E</text><text xml:space="preserve" font-family="Helvetica-Light,Helvetica" font-size="80.0" fill="#FEFFFF" transform="matrix(1.00, 0.00, -0.00, -1.00, 229.9, 436.4)">a</text><text xml:space="preserve" font-family="Helvetica-Light,Helvetica" font-size="80.0" fill="#FEFFFF" transform="matrix(1.00, 0.00, -0.00, -1.00, 274.4, 436.4)">c</text><text xml:space="preserve" font-family="Helvetica-Light,Helvetica" font-size="80.0" fill="#FEFFFF" transform="matrix(1.00, 0.00, -0.00, -1.00, 318.8, 436.4)">h</text><text xml:space="preserve" font-family="Helvetica-Light,Helvetica" font-size="80.0" fill="#FEFFFF" transform="matrix(1.00, 0.00, -0.00, -1.00, 363.3, 436.4)"> </text><text xml:space="preserve" font-family="Helvetica-Light,Helvetica" font-size="80.0" fill="#FEFFFF" transform="matrix(1.00, 0.00, -0.00, -1.00, 385.6, 436.4)">k</text><text xml:space="preserve" font-family="Helvetica-Light,Helvetica" font-size="80.0" fill="#FEFFFF" transform="matrix(1.00, 0.00, -0.00, -1.00, 425.6, 436.4)">e</text><text xml:space="preserve" font-family="Helvetica-Light,Helvetica" font-size="80.0" fill="#FEFFFF" transform="matrix(1.00, 0.00, -0.00, -1.00, 470.0, 436.4)">y</text><text xml:space="preserve" font-family="Helvetica-Light,Helvetica" font-size="80.0" fill="#FEFFFF" transform="matrix(1.00, 0.00, -0.00, -1.00, 510.0, 436.4)"> </text><text xml:space="preserve" font-family="Helvetica-Light,Helvetica" font-size="80.0" fill="#FEFFFF" transform="matrix(1.00, 0.00, -0.00, -1.00, 532.3, 436.4)">s</text><text xml:space="preserve" font-family="Helvetica-Light,Helvetica" font-size="80.0" fill="#FEFFFF" transform="matrix(1.00, 0.00, -0.00, -1.00, 572.3, 436.4)">h</text><text xml:space="preserve" font-family="Helvetica-Light,Helvetica" font-size="80.0" fill="#FEFFFF" transform="matrix(1.00, 0.00, -0.00, -1.00, 616.8, 436.4)">i</text><text xml:space="preserve" font-family="Helvetica-Light,Helvetica" font-size="80.0" fill="#FEFFFF" transform="matrix(1.00, 0.00, -0.00, -1.00, 634.5, 436.4)">f</text><text xml:space="preserve" font-family="Helvetica-Light,Helvetica" font-size="80.0" fill="#FEFFFF" transform="matrix(1.00, 0.00, -0.00, -1.00, 656.8, 436.4)">t</text><text xml:space="preserve" font-family="Helvetica-Light,Helvetica" font-size="80.0" fill="#FEFFFF" transform="matrix(1.00, 0.00, -0.00, -1.00, 679.0, 436.4)">s</text><text xml:space="preserve" font-family="Helvetica-Light,Helvetica" font-size="80.0" fill="#FEFFFF" transform="matrix(1.00, 0.00, -0.00, -1.00, 719.0, 436.4)"> </text><text xml:space="preserve" font-family="Helvetica-Light,Helvetica" font-size="80.0" fill="#FEFFFF" transform="matrix(1.00, 0.00, -0.00, -1.00, 741.2, 436.4)">t</text><text xml:space="preserve" font-family="Helvetica-Light,Helvetica" font-size="80.0" fill="#FEFFFF" transform="matrix(1.00, 0.00, -0.00, -1.00, 763.5, 436.4)">o</text><text xml:space="preserve" font-family="Helvetica-Light,Helvetica" font-size="80.0" fill="#FEFFFF" transform="matrix(1.00, 0.00, -0.00, -1.00, 808.0, 436.4)">n</text><text xml:space="preserve" font-family="Helvetica-Light,Helvetica" font-size="80.0" fill="#FEFFFF" transform="matrix(1.00, 0.00, -0.00, -1.00, 852.4, 436.4)">e</text><text xml:space="preserve" font-family="Helvetica-Light,Helvetica" font-size="80.0" fill="#FEFFFF" transform="matrix(1.00, 0.00, -0.00, -1.00, 896.9, 436.4)"> </text><image xlink:href="../../C9F87468-2352-4160-BDB5-CD8D989A82BE/assets/FA069D08CFF980F704F91344BDC36746.png" width="32.00" height="33.00" transform="matrix(1.00, 0.00, -0.00, -1.00, 136.0, 333.0)"></image><text xml:space="preserve" font-family="Helvetica-Light,Helvetica" font-size="60.0" fill="#FEFFFF" transform="matrix(1.00, 0.00, -0.00, -1.00, 137.0, 302.8)">•</text><image xlink:href="../../C9F87468-2352-4160-BDB5-CD8D989A82BE/assets/0A6AF48B82BB4140D8C56D2A820A7F59.png" width="719.00" height="78.00" transform="matrix(1.00, 0.00, -0.00, -1.00, 179.0, 349.0)"></image><text xml:space="preserve" font-family="Helvetica-Light,Helvetica" font-size="80.0" fill="#FEFFFF" transform="matrix(1.00, 0.00, -0.00, -1.00, 181.0, 295.4)">0</text><text xml:space="preserve" font-family="Helvetica-Light,Helvetica" font-size="80.0" fill="#FEFFFF" transform="matrix(1.00, 0.00, -0.00, -1.00, 225.5, 295.4)">,</text><text xml:space="preserve" font-family="Helvetica-Light,Helvetica" font-size="80.0" fill="#FEFFFF" transform="matrix(1.00, 0.00, -0.00, -1.00, 247.7, 295.4)"> </text><text xml:space="preserve" font-family="Helvetica-Light,Helvetica" font-size="80.0" fill="#FEFFFF" transform="matrix(1.00, 0.00, -0.00, -1.00, 270.0, 295.4)">+</text><text xml:space="preserve" font-family="Helvetica-Light,Helvetica" font-size="80.0" fill="#FEFFFF" transform="matrix(1.00, 0.00, -0.00, -1.00, 322.8, 295.4)">1</text><text xml:space="preserve" font-family="Helvetica-Light,Helvetica" font-size="80.0" fill="#FEFFFF" transform="matrix(1.00, 0.00, -0.00, -1.00, 367.2, 295.4)">,</text><text xml:space="preserve" font-family="Helvetica-Light,Helvetica" font-size="80.0" fill="#FEFFFF" transform="matrix(1.00, 0.00, -0.00, -1.00, 389.5, 295.4)"> </text><text xml:space="preserve" font-family="Helvetica-Light,Helvetica" font-size="80.0" fill="#FEFFFF" transform="matrix(1.00, 0.00, -0.00, -1.00, 411.7, 295.4)">-</text><text xml:space="preserve" font-family="Helvetica-Light,Helvetica" font-size="80.0" fill="#FEFFFF" transform="matrix(1.00, 0.00, -0.00, -1.00, 438.4, 295.4)">1</text><text xml:space="preserve" font-family="Helvetica-Light,Helvetica" font-size="80.0" fill="#FEFFFF" transform="matrix(1.00, 0.00, -0.00, -1.00, 482.8, 295.4)">,</text><text xml:space="preserve" font-family="Helvetica-Light,Helvetica" font-size="80.0" fill="#FEFFFF" transform="matrix(1.00, 0.00, -0.00, -1.00, 505.1, 295.4)"> </text><text xml:space="preserve" font-family="Helvetica-Light,Helvetica" font-size="80.0" fill="#FEFFFF" transform="matrix(1.00, 0.00, -0.00, -1.00, 527.3, 295.4)">+</text><text xml:space="preserve" font-family="Helvetica-Light,Helvetica" font-size="80.0" fill="#FEFFFF" transform="matrix(1.00, 0.00, -0.00, -1.00, 580.1, 295.4)">2</text><text xml:space="preserve" font-family="Helvetica-Light,Helvetica" font-size="80.0" fill="#FEFFFF" transform="matrix(1.00, 0.00, -0.00, -1.00, 624.6, 295.4)">,</text><text xml:space="preserve" font-family="Helvetica-Light,Helvetica" font-size="80.0" fill="#FEFFFF" transform="matrix(1.00, 0.00, -0.00, -1.00, 646.8, 295.4)"> </text><text xml:space="preserve" font-family="Helvetica-Light,Helvetica" font-size="80.0" fill="#FEFFFF" transform="matrix(1.00, 0.00, -0.00, -1.00, 669.1, 295.4)">-</text><text xml:space="preserve" font-family="Helvetica-Light,Helvetica" font-size="80.0" fill="#FEFFFF" transform="matrix(1.00, 0.00, -0.00, -1.00, 695.7, 295.4)">7</text><text xml:space="preserve" font-family="Helvetica-Light,Helvetica" font-size="80.0" fill="#FEFFFF" transform="matrix(1.00, 0.00, -0.00, -1.00, 740.2, 295.4)">,</text><text xml:space="preserve" font-family="Helvetica-Light,Helvetica" font-size="80.0" fill="#FEFFFF" transform="matrix(1.00, 0.00, -0.00, -1.00, 762.4, 295.4)"> </text><text xml:space="preserve" font-family="Helvetica-Light,Helvetica" font-size="80.0" fill="#FEFFFF" transform="matrix(1.00, 0.00, -0.00, -1.00, 784.7, 295.4)">e</text><text xml:space="preserve" font-family="Helvetica-Light,Helvetica" font-size="80.0" fill="#FEFFFF" transform="matrix(1.00, 0.00, -0.00, -1.00, 829.2, 295.4)">t</text><text xml:space="preserve" font-family="Helvetica-Light,Helvetica" font-size="80.0" fill="#FEFFFF" transform="matrix(1.00, 0.00, -0.00, -1.00, 851.4, 295.4)">c</text><image xlink:href="../../C9F87468-2352-4160-BDB5-CD8D989A82BE/assets/255F6FCE28237EA6D3D6E99C1A4780C8.png" width="920.00" height="496.00" transform="matrix(0.88, 0.47, 0.47, -0.88, 889.6, 495.6)" opacity="0.55"></image><image xlink:href="../../C9F87468-2352-4160-BDB5-CD8D989A82BE/assets/6F139CA60103DF99AA9C597ADFF6213E.png" width="2532.00" height="1304.00" transform="matrix(0.30, 0.16, 0.16, -0.30, 920.4, 501.1)"></image></g></svg>