<?xml version="1.0" encoding="UTF-8" standalone="no"?><svg xmlns="http://www.w3.org/2000/svg" xmlns:xlink="http://www.w3.org/1999/xlink" clip-rule="evenodd" stroke-miterlimit="10" viewBox="0 0 1920 1080"><desc>SVG generated by Keynote</desc><defs></defs><g transform="matrix(1.00, 0.00, -0.00, -1.00, 0.0, 1080.0)"><path d="M 0.0 1080.0 L 1920.0 1080.0 L 1920.0 0.0 L 0.0 0.0 Z M 0.0 1080.0 " fill="#000000"></path><image xlink:href="../../77EC243D-0C10-4669-A938-6F48CDBF5E28/assets/BAFA93934439ADD2E95A7F818D20BAF8.jpeg" width="1158.00" height="772.00" transform="matrix(-1.76, -0.01, -0.01, 1.76, 1983.7, -130.0)"></image><image xlink:href="../../77EC243D-0C10-4669-A938-6F48CDBF5E28/assets/54991E059600AF8C20EF34E160B172B8.png" width="989.00" height="103.00" transform="matrix(1.00, 0.00, -0.00, -1.00, 148.0, 996.0)"></image><text xml:space="preserve" font-family="Helvetica-LightOblique,Helvetica" font-style="italic" font-size="97.4" fill="#FEFFFF" transform="matrix(1.00, 0.00, -0.00, -1.00, 145.0, 926.4)">S</text><text xml:space="preserve" font-family="Helvetica-LightOblique,Helvetica" font-style="italic" font-size="97.4" fill="#FEFFFF" transform="matrix(1.00, 0.00, -0.00, -1.00, 204.5, 926.4)">a</text><text xml:space="preserve" font-family="Helvetica-LightOblique,Helvetica" font-style="italic" font-size="97.4" fill="#FEFFFF" transform="matrix(1.00, 0.00, -0.00, -1.00, 258.7, 926.4)">m</text><text xml:space="preserve" font-family="Helvetica-LightOblique,Helvetica" font-style="italic" font-size="97.4" fill="#FEFFFF" transform="matrix(1.00, 0.00, -0.00, -1.00, 339.9, 926.4)">c</text><text xml:space="preserve" font-family="Helvetica-LightOblique,Helvetica" font-style="italic" font-size="97.4" fill="#FEFFFF" transform="matrix(1.00, 0.00, -0.00, -1.00, 394.1, 926.4)">h</text><text xml:space="preserve" font-family="Helvetica-LightOblique,Helvetica" font-style="italic" font-size="97.4" fill="#FEFFFF" transform="matrix(1.00, 0.00, -0.00, -1.00, 448.2, 926.4)">i</text><text xml:space="preserve" font-family="Helvetica-LightOblique,Helvetica" font-style="italic" font-size="97.4" fill="#FEFFFF" transform="matrix(1.00, 0.00, -0.00, -1.00, 469.9, 926.4)">l</text><text xml:space="preserve" font-family="Helvetica-LightOblique,Helvetica" font-style="italic" font-size="97.4" fill="#FEFFFF" transform="matrix(1.00, 0.00, -0.00, -1.00, 491.5, 926.4)">l</text><text xml:space="preserve" font-family="Helvetica-LightOblique,Helvetica" font-style="italic" font-size="97.4" fill="#FEFFFF" transform="matrix(1.00, 0.00, -0.00, -1.00, 513.1, 926.4)">i</text><text xml:space="preserve" font-family="Helvetica-LightOblique,Helvetica" font-style="italic" font-size="97.4" fill="#FEFFFF" transform="matrix(1.00, 0.00, -0.00, -1.00, 534.8, 926.4)">a</text><text xml:space="preserve" font-family="Helvetica-LightOblique,Helvetica" font-style="italic" font-size="97.4" fill="#FEFFFF" transform="matrix(1.00, 0.00, -0.00, -1.00, 588.9, 926.4)">n</text><text xml:space="preserve" font-family="Helvetica-LightOblique,Helvetica" font-style="italic" font-size="97.4" fill="#FEFFFF" transform="matrix(1.00, 0.00, -0.00, -1.00, 643.1, 926.4)"> </text><text xml:space="preserve" font-family="Helvetica-LightOblique,Helvetica" font-style="italic" font-size="97.4" fill="#FEFFFF" transform="matrix(1.00, 0.00, -0.00, -1.00, 670.2, 926.4)">T</text><text xml:space="preserve" font-family="Helvetica-LightOblique,Helvetica" font-style="italic" font-size="97.4" fill="#FEFFFF" transform="matrix(1.00, 0.00, -0.00, -1.00, 724.4, 926.4)">i</text><text xml:space="preserve" font-family="Helvetica-LightOblique,Helvetica" font-style="italic" font-size="97.4" fill="#FEFFFF" transform="matrix(1.00, 0.00, -0.00, -1.00, 746.0, 926.4)">p</text><text xml:space="preserve" font-family="Helvetica-LightOblique,Helvetica" font-style="italic" font-size="97.4" fill="#FEFFFF" transform="matrix(1.00, 0.00, -0.00, -1.00, 805.6, 926.4)"> </text><text xml:space="preserve" font-family="Helvetica-LightOblique,Helvetica" font-style="italic" font-size="97.4" fill="#FEFFFF" transform="matrix(1.00, 0.00, -0.00, -1.00, 832.6, 926.4)">T</text><text xml:space="preserve" font-family="Helvetica-LightOblique,Helvetica" font-style="italic" font-size="97.4" fill="#FEFFFF" transform="matrix(1.00, 0.00, -0.00, -1.00, 886.8, 926.4)">i</text><text xml:space="preserve" font-family="Helvetica-LightOblique,Helvetica" font-style="italic" font-size="97.4" fill="#FEFFFF" transform="matrix(1.00, 0.00, -0.00, -1.00, 908.5, 926.4)">p</text><text xml:space="preserve" font-family="Helvetica-LightOblique,Helvetica" font-style="italic" font-size="97.4" fill="#FEFFFF" transform="matrix(1.00, 0.00, -0.00, -1.00, 968.0, 926.4)"> </text><text xml:space="preserve" font-family="Helvetica-LightOblique,Helvetica" font-style="italic" font-size="97.4" fill="#FEFFFF" transform="matrix(1.00, 0.00, -0.00, -1.00, 995.1, 926.4)">T</text><text xml:space="preserve" font-family="Helvetica-LightOblique,Helvetica" font-style="italic" font-size="97.4" fill="#FEFFFF" transform="matrix(1.00, 0.00, -0.00, -1.00, 1049.3, 926.4)">i</text><text xml:space="preserve" font-family="Helvetica-LightOblique,Helvetica" font-style="italic" font-size="97.4" fill="#FEFFFF" transform="matrix(1.00, 0.00, -0.00, -1.00, 1070.9, 926.4)">p</text><text xml:space="preserve" font-family="Helvetica-LightOblique,Helvetica" font-style="italic" font-size="97.4" fill="#FEFFFF" transform="matrix(1.00, 0.00, -0.00, -1.00, 1130.4, 926.4)"> </text><image xlink:href="../../77EC243D-0C10-4669-A938-6F48CDBF5E28/assets/C25FBE6C70BCEE6048B7AEBC3A8B21A3.png" width="619.00" height="103.00" transform="matrix(1.00, 0.00, -0.00, -1.00, 1163.0, 996.0)"></image><text xml:space="preserve" font-family="Helvetica-LightOblique,Helvetica" font-style="italic" font-size="97.4" fill="#FEFFFF" transform="matrix(1.00, 0.00, -0.00, -1.00, 1157.5, 926.4)">C</text><text xml:space="preserve" font-family="Helvetica-LightOblique,Helvetica" font-style="italic" font-size="97.4" fill="#FEFFFF" transform="matrix(1.00, 0.00, -0.00, -1.00, 1227.9, 926.4)">h</text><text xml:space="preserve" font-family="Helvetica-LightOblique,Helvetica" font-style="italic" font-size="97.4" fill="#FEFFFF" transform="matrix(1.00, 0.00, -0.00, -1.00, 1282.0, 926.4)">e</text><text xml:space="preserve" font-family="Helvetica-LightOblique,Helvetica" font-style="italic" font-size="97.4" fill="#FEFFFF" transform="matrix(1.00, 0.00, -0.00, -1.00, 1336.2, 926.4)">e</text><text xml:space="preserve" font-family="Helvetica-LightOblique,Helvetica" font-style="italic" font-size="97.4" fill="#FEFFFF" transform="matrix(1.00, 0.00, -0.00, -1.00, 1390.4, 926.4)">e</text><text xml:space="preserve" font-family="Helvetica-LightOblique,Helvetica" font-style="italic" font-size="97.4" fill="#FEFFFF" transform="matrix(1.00, 0.00, -0.00, -1.00, 1444.6, 926.4)">p</text><text xml:space="preserve" font-family="Helvetica-LightOblique,Helvetica" font-style="italic" font-size="97.4" fill="#FEFFFF" transform="matrix(1.00, 0.00, -0.00, -1.00, 1504.1, 926.4)">e</text><text xml:space="preserve" font-family="Helvetica-LightOblique,Helvetica" font-style="italic" font-size="97.4" fill="#FEFFFF" transform="matrix(1.00, 0.00, -0.00, -1.00, 1558.3, 926.4)">e</text><text xml:space="preserve" font-family="Helvetica-LightOblique,Helvetica" font-style="italic" font-size="97.4" fill="#FEFFFF" transform="matrix(1.00, 0.00, -0.00, -1.00, 1612.5, 926.4)">e</text><text xml:space="preserve" font-family="Helvetica-LightOblique,Helvetica" font-style="italic" font-size="97.4" fill="#FEFFFF" transform="matrix(1.00, 0.00, -0.00, -1.00, 1666.6, 926.4)">e</text><text xml:space="preserve" font-family="Helvetica-LightOblique,Helvetica" font-style="italic" font-size="97.4" fill="#FEFFFF" transform="matrix(1.00, 0.00, -0.00, -1.00, 1720.8, 926.4)">e</text><image xlink:href="../../77EC243D-0C10-4669-A938-6F48CDBF5E28/assets/5A5B7CCBEF6779CAD040B90B6D74CFF4.png" width="27.00" height="27.00" transform="matrix(1.00, 0.00, -0.00, -1.00, 135.0, 705.0)"></image><text xml:space="preserve" font-family="Helvetica-Light,Helvetica" font-size="45.0" fill="#FEFFFF" transform="matrix(1.00, 0.00, -0.00, -1.00, 137.0, 683.3)">•</text><image xlink:href="../../77EC243D-0C10-4669-A938-6F48CDBF5E28/assets/E49EDD6BD334A778D1A6D6E15C765C32.png" width="232.00" height="55.00" transform="matrix(1.00, 0.00, -0.00, -1.00, 182.0, 718.0)"></image><text xml:space="preserve" font-family="Helvetica-Light,Helvetica" font-size="60.0" fill="#FEFFFF" transform="matrix(1.00, 0.00, -0.00, -1.00, 181.0, 677.8)">I</text><text xml:space="preserve" font-family="Helvetica-Light,Helvetica" font-size="60.0" fill="#FEFFFF" transform="matrix(1.00, 0.00, -0.00, -1.00, 197.7, 677.8)">n</text><text xml:space="preserve" font-family="Helvetica-Light,Helvetica" font-size="60.0" fill="#FEFFFF" transform="matrix(1.00, 0.00, -0.00, -1.00, 231.0, 677.8)">v</text><text xml:space="preserve" font-family="Helvetica-Light,Helvetica" font-size="60.0" fill="#FEFFFF" transform="matrix(1.00, 0.00, -0.00, -1.00, 261.0, 677.8)">e</text><text xml:space="preserve" font-family="Helvetica-Light,Helvetica" font-size="60.0" fill="#FEFFFF" transform="matrix(1.00, 0.00, -0.00, -1.00, 294.4, 677.8)">n</text><text xml:space="preserve" font-family="Helvetica-Light,Helvetica" font-size="60.0" fill="#FEFFFF" transform="matrix(1.00, 0.00, -0.00, -1.00, 327.8, 677.8)">t</text><text xml:space="preserve" font-family="Helvetica-Light,Helvetica" font-size="60.0" fill="#FEFFFF" transform="matrix(1.00, 0.00, -0.00, -1.00, 344.4, 677.8)">o</text><text xml:space="preserve" font-family="Helvetica-Light,Helvetica" font-size="60.0" fill="#FEFFFF" transform="matrix(1.00, 0.00, -0.00, -1.00, 377.8, 677.8)">r</text><text xml:space="preserve" font-family="Helvetica-Light,Helvetica" font-size="60.0" fill="#FEFFFF" transform="matrix(1.00, 0.00, -0.00, -1.00, 397.8, 677.8)">:</text><text xml:space="preserve" font-family="Helvetica-Light,Helvetica" font-size="60.0" fill="#FEFFFF" transform="matrix(1.00, 0.00, -0.00, -1.00, 414.5, 677.8)"> </text><image xlink:href="../../77EC243D-0C10-4669-A938-6F48CDBF5E28/assets/A03AF7B378E1A6C3140164DE4827B964.png" width="500.00" height="57.00" transform="matrix(1.00, 0.00, -0.00, -1.00, 430.0, 720.0)"></image><text xml:space="preserve" font-family="Helvetica-Bold,Helvetica" font-weight="bold" font-size="60.0" fill="#FEFFFF" transform="matrix(1.00, 0.00, -0.00, -1.00, 431.1, 677.8)">L</text><text xml:space="preserve" font-family="Helvetica-Bold,Helvetica" font-weight="bold" font-size="60.0" fill="#FEFFFF" transform="matrix(1.00, 0.00, -0.00, -1.00, 467.8, 677.8)">e</text><text xml:space="preserve" font-family="Helvetica-Bold,Helvetica" font-weight="bold" font-size="60.0" fill="#FEFFFF" transform="matrix(1.00, 0.00, -0.00, -1.00, 501.1, 677.8)">o</text><text xml:space="preserve" font-family="Helvetica-Bold,Helvetica" font-weight="bold" font-size="60.0" fill="#FEFFFF" transform="matrix(1.00, 0.00, -0.00, -1.00, 537.8, 677.8)">n</text><text xml:space="preserve" font-family="Helvetica-Bold,Helvetica" font-weight="bold" font-size="60.0" fill="#FEFFFF" transform="matrix(1.00, 0.00, -0.00, -1.00, 574.4, 677.8)"> </text><text xml:space="preserve" font-family="Helvetica-Bold,Helvetica" font-weight="bold" font-size="60.0" fill="#FEFFFF" transform="matrix(1.00, 0.00, -0.00, -1.00, 591.1, 677.8)">G</text><text xml:space="preserve" font-family="Helvetica-Bold,Helvetica" font-weight="bold" font-size="60.0" fill="#FEFFFF" transform="matrix(1.00, 0.00, -0.00, -1.00, 637.7, 677.8)">r</text><text xml:space="preserve" font-family="Helvetica-Bold,Helvetica" font-weight="bold" font-size="60.0" fill="#FEFFFF" transform="matrix(1.00, 0.00, -0.00, -1.00, 661.1, 677.8)">u</text><text xml:space="preserve" font-family="Helvetica-Bold,Helvetica" font-weight="bold" font-size="60.0" fill="#FEFFFF" transform="matrix(1.00, 0.00, -0.00, -1.00, 697.7, 677.8)">e</text><text xml:space="preserve" font-family="Helvetica-Bold,Helvetica" font-weight="bold" font-size="60.0" fill="#FEFFFF" transform="matrix(1.00, 0.00, -0.00, -1.00, 731.1, 677.8)">n</text><text xml:space="preserve" font-family="Helvetica-Bold,Helvetica" font-weight="bold" font-size="60.0" fill="#FEFFFF" transform="matrix(1.00, 0.00, -0.00, -1.00, 767.7, 677.8)">b</text><text xml:space="preserve" font-family="Helvetica-Bold,Helvetica" font-weight="bold" font-size="60.0" fill="#FEFFFF" transform="matrix(1.00, 0.00, -0.00, -1.00, 804.3, 677.8)">a</text><text xml:space="preserve" font-family="Helvetica-Bold,Helvetica" font-weight="bold" font-size="60.0" fill="#FEFFFF" transform="matrix(1.00, 0.00, -0.00, -1.00, 837.7, 677.8)">u</text><text xml:space="preserve" font-family="Helvetica-Bold,Helvetica" font-weight="bold" font-size="60.0" fill="#FEFFFF" transform="matrix(1.00, 0.00, -0.00, -1.00, 874.3, 677.8)">m</text><text xml:space="preserve" font-family="Helvetica-Light,Helvetica" font-size="60.0" fill="#FEFFFF" transform="matrix(1.00, 0.00, -0.00, -1.00, 927.8, 677.8)"> </text><image xlink:href="../../77EC243D-0C10-4669-A938-6F48CDBF5E28/assets/5A5B7CCBEF6779CAD040B90B6D74CFF4.png" width="27.00" height="27.00" transform="matrix(1.00, 0.00, -0.00, -1.00, 135.0, 588.0)"></image><text xml:space="preserve" font-family="Helvetica-Light,Helvetica" font-size="45.0" fill="#FEFFFF" transform="matrix(1.00, 0.00, -0.00, -1.00, 137.0, 566.3)">•</text><image xlink:href="../../77EC243D-0C10-4669-A938-6F48CDBF5E28/assets/D8BABDBCE0BBE4C7B69FA9C058B0A738.png" width="305.00" height="57.00" transform="matrix(1.00, 0.00, -0.00, -1.00, 180.0, 603.0)"></image><text xml:space="preserve" font-family="Helvetica-Light,Helvetica" font-size="60.0" fill="#FEFFFF" transform="matrix(1.00, 0.00, -0.00, -1.00, 181.0, 560.8)">U</text><text xml:space="preserve" font-family="Helvetica-Light,Helvetica" font-size="60.0" fill="#FEFFFF" transform="matrix(1.00, 0.00, -0.00, -1.00, 224.3, 560.8)">.</text><text xml:space="preserve" font-family="Helvetica-Light,Helvetica" font-size="60.0" fill="#FEFFFF" transform="matrix(1.00, 0.00, -0.00, -1.00, 241.0, 560.8)">S</text><text xml:space="preserve" font-family="Helvetica-Light,Helvetica" font-size="60.0" fill="#FEFFFF" transform="matrix(1.00, 0.00, -0.00, -1.00, 277.7, 560.8)">.</text><text xml:space="preserve" font-family="Helvetica-Light,Helvetica" font-size="60.0" fill="#FEFFFF" transform="matrix(1.00, 0.00, -0.00, -1.00, 294.3, 560.8)"> </text><text xml:space="preserve" font-family="Helvetica-Light,Helvetica" font-size="60.0" fill="#FEFFFF" transform="matrix(1.00, 0.00, -0.00, -1.00, 311.0, 560.8)">P</text><text xml:space="preserve" font-family="Helvetica-Light,Helvetica" font-size="60.0" fill="#FEFFFF" transform="matrix(1.00, 0.00, -0.00, -1.00, 347.7, 560.8)">a</text><text xml:space="preserve" font-family="Helvetica-Light,Helvetica" font-size="60.0" fill="#FEFFFF" transform="matrix(1.00, 0.00, -0.00, -1.00, 381.0, 560.8)">t</text><text xml:space="preserve" font-family="Helvetica-Light,Helvetica" font-size="60.0" fill="#FEFFFF" transform="matrix(1.00, 0.00, -0.00, -1.00, 397.7, 560.8)">e</text><text xml:space="preserve" font-family="Helvetica-Light,Helvetica" font-size="60.0" fill="#FEFFFF" transform="matrix(1.00, 0.00, -0.00, -1.00, 431.1, 560.8)">n</text><text xml:space="preserve" font-family="Helvetica-Light,Helvetica" font-size="60.0" fill="#FEFFFF" transform="matrix(1.00, 0.00, -0.00, -1.00, 464.4, 560.8)">t</text><text xml:space="preserve" font-family="Helvetica-Light,Helvetica" font-size="60.0" fill="#FEFFFF" transform="matrix(1.00, 0.00, -0.00, -1.00, 481.1, 560.8)"> </text><image xlink:href="../../77EC243D-0C10-4669-A938-6F48CDBF5E28/assets/5DB44C4FC391C89C917E4B29F7690F45.png" width="304.00" height="62.00" transform="matrix(1.00, 0.00, -0.00, -1.00, 497.0, 601.0)"></image><text xml:space="preserve" font-family="Helvetica-LightOblique,Helvetica" font-style="italic" font-size="60.0" fill="#FEFFFF" transform="matrix(1.00, 0.00, -0.00, -1.00, 497.8, 560.8)">#</text><text xml:space="preserve" font-family="Helvetica-LightOblique,Helvetica" font-style="italic" font-size="60.0" fill="#FEFFFF" transform="matrix(1.00, 0.00, -0.00, -1.00, 531.2, 560.8)">5</text><text xml:space="preserve" font-family="Helvetica-LightOblique,Helvetica" font-style="italic" font-size="60.0" fill="#FEFFFF" transform="matrix(1.00, 0.00, -0.00, -1.00, 564.5, 560.8)">,</text><text xml:space="preserve" font-family="Helvetica-LightOblique,Helvetica" font-style="italic" font-size="60.0" fill="#FEFFFF" transform="matrix(1.00, 0.00, -0.00, -1.00, 581.2, 560.8)">5</text><text xml:space="preserve" font-family="Helvetica-LightOblique,Helvetica" font-style="italic" font-size="60.0" fill="#FEFFFF" transform="matrix(1.00, 0.00, -0.00, -1.00, 614.6, 560.8)">6</text><text xml:space="preserve" font-family="Helvetica-LightOblique,Helvetica" font-style="italic" font-size="60.0" fill="#FEFFFF" transform="matrix(1.00, 0.00, -0.00, -1.00, 647.9, 560.8)">5</text><text xml:space="preserve" font-family="Helvetica-LightOblique,Helvetica" font-style="italic" font-size="60.0" fill="#FEFFFF" transform="matrix(1.00, 0.00, -0.00, -1.00, 681.3, 560.8)">,</text><text xml:space="preserve" font-family="Helvetica-LightOblique,Helvetica" font-style="italic" font-size="60.0" fill="#FEFFFF" transform="matrix(1.00, 0.00, -0.00, -1.00, 698.0, 560.8)">6</text><text xml:space="preserve" font-family="Helvetica-LightOblique,Helvetica" font-style="italic" font-size="60.0" fill="#FEFFFF" transform="matrix(1.00, 0.00, -0.00, -1.00, 731.3, 560.8)">4</text><text xml:space="preserve" font-family="Helvetica-LightOblique,Helvetica" font-style="italic" font-size="60.0" fill="#FEFFFF" transform="matrix(1.00, 0.00, -0.00, -1.00, 764.7, 560.8)">1</text><text xml:space="preserve" font-family="Helvetica-LightOblique,Helvetica" font-style="italic" font-size="60.0" fill="#FEFFFF" transform="matrix(1.00, 0.00, -0.00, -1.00, 798.0, 560.8)"> </text><image xlink:href="../../77EC243D-0C10-4669-A938-6F48CDBF5E28/assets/5A5B7CCBEF6779CAD040B90B6D74CFF4.png" width="27.00" height="27.00" transform="matrix(1.00, 0.00, -0.00, -1.00, 135.0, 471.0)"></image><text xml:space="preserve" font-family="Helvetica-Light,Helvetica" font-size="45.0" fill="#FEFFFF" transform="matrix(1.00, 0.00, -0.00, -1.00, 137.0, 449.3)">•</text><image xlink:href="../../77EC243D-0C10-4669-A938-6F48CDBF5E28/assets/A63B7B840A536EB8AFDF6C59AE9C03A6.png" width="518.00" height="68.00" transform="matrix(1.00, 0.00, -0.00, -1.00, 178.0, 486.0)"></image><text xml:space="preserve" font-family="Helvetica-Light,Helvetica" font-size="60.0" fill="#FEFFFF" transform="matrix(1.00, 0.00, -0.00, -1.00, 181.0, 443.8)">Q</text><text xml:space="preserve" font-family="Helvetica-Light,Helvetica" font-size="60.0" fill="#FEFFFF" transform="matrix(1.00, 0.00, -0.00, -1.00, 227.7, 443.8)">W</text><text xml:space="preserve" font-family="Helvetica-Light,Helvetica" font-size="60.0" fill="#FEFFFF" transform="matrix(1.00, 0.00, -0.00, -1.00, 281.0, 443.8)">E</text><text xml:space="preserve" font-family="Helvetica-Light,Helvetica" font-size="60.0" fill="#FEFFFF" transform="matrix(1.00, 0.00, -0.00, -1.00, 317.7, 443.8)">R</text><text xml:space="preserve" font-family="Helvetica-Light,Helvetica" font-size="60.0" fill="#FEFFFF" transform="matrix(1.00, 0.00, -0.00, -1.00, 356.6, 443.8)">T</text><text xml:space="preserve" font-family="Helvetica-Light,Helvetica" font-size="60.0" fill="#FEFFFF" transform="matrix(1.00, 0.00, -0.00, -1.00, 390.0, 443.8)">Y</text><text xml:space="preserve" font-family="Helvetica-Light,Helvetica" font-size="60.0" fill="#FEFFFF" transform="matrix(1.00, 0.00, -0.00, -1.00, 426.6, 443.8)"> </text><text xml:space="preserve" font-family="Helvetica-Light,Helvetica" font-size="60.0" fill="#FEFFFF" transform="matrix(1.00, 0.00, -0.00, -1.00, 443.3, 443.8)">k</text><text xml:space="preserve" font-family="Helvetica-Light,Helvetica" font-size="60.0" fill="#FEFFFF" transform="matrix(1.00, 0.00, -0.00, -1.00, 473.3, 443.8)">e</text><text xml:space="preserve" font-family="Helvetica-Light,Helvetica" font-size="60.0" fill="#FEFFFF" transform="matrix(1.00, 0.00, -0.00, -1.00, 506.7, 443.8)">y</text><text xml:space="preserve" font-family="Helvetica-Light,Helvetica" font-size="60.0" fill="#FEFFFF" transform="matrix(1.00, 0.00, -0.00, -1.00, 536.7, 443.8)">b</text><text xml:space="preserve" font-family="Helvetica-Light,Helvetica" font-size="60.0" fill="#FEFFFF" transform="matrix(1.00, 0.00, -0.00, -1.00, 573.3, 443.8)">o</text><text xml:space="preserve" font-family="Helvetica-Light,Helvetica" font-size="60.0" fill="#FEFFFF" transform="matrix(1.00, 0.00, -0.00, -1.00, 606.7, 443.8)">a</text><text xml:space="preserve" font-family="Helvetica-Light,Helvetica" font-size="60.0" fill="#FEFFFF" transform="matrix(1.00, 0.00, -0.00, -1.00, 640.1, 443.8)">r</text><text xml:space="preserve" font-family="Helvetica-Light,Helvetica" font-size="60.0" fill="#FEFFFF" transform="matrix(1.00, 0.00, -0.00, -1.00, 659.0, 443.8)">d</text><text xml:space="preserve" font-family="Helvetica-LightOblique,Helvetica" font-style="italic" font-size="60.0" fill="#FEFFFF" transform="matrix(1.00, 0.00, -0.00, -1.00, 695.6, 443.8)"> </text><image xlink:href="../../77EC243D-0C10-4669-A938-6F48CDBF5E28/assets/5A5B7CCBEF6779CAD040B90B6D74CFF4.png" width="27.00" height="27.00" transform="matrix(1.00, 0.00, -0.00, -1.00, 135.0, 354.0)"></image><text xml:space="preserve" font-family="Helvetica-Light,Helvetica" font-size="45.0" fill="#FEFFFF" transform="matrix(1.00, 0.00, -0.00, -1.00, 137.0, 332.3)">•</text><image xlink:href="../../77EC243D-0C10-4669-A938-6F48CDBF5E28/assets/6FCEBC4DC1FE1CE3E70BC30289BE50A6.png" width="482.00" height="66.00" transform="matrix(1.00, 0.00, -0.00, -1.00, 180.0, 367.0)"></image><text xml:space="preserve" font-family="Helvetica-Light,Helvetica" font-size="60.0" fill="#FEFFFF" transform="matrix(1.00, 0.00, -0.00, -1.00, 181.0, 326.8)">R</text><text xml:space="preserve" font-family="Helvetica-Light,Helvetica" font-size="60.0" fill="#FEFFFF" transform="matrix(1.00, 0.00, -0.00, -1.00, 221.0, 326.8)">e</text><text xml:space="preserve" font-family="Helvetica-Light,Helvetica" font-size="60.0" fill="#FEFFFF" transform="matrix(1.00, 0.00, -0.00, -1.00, 254.4, 326.8)">l</text><text xml:space="preserve" font-family="Helvetica-Light,Helvetica" font-size="60.0" fill="#FEFFFF" transform="matrix(1.00, 0.00, -0.00, -1.00, 267.7, 326.8)">a</text><text xml:space="preserve" font-family="Helvetica-Light,Helvetica" font-size="60.0" fill="#FEFFFF" transform="matrix(1.00, 0.00, -0.00, -1.00, 301.1, 326.8)">t</text><text xml:space="preserve" font-family="Helvetica-Light,Helvetica" font-size="60.0" fill="#FEFFFF" transform="matrix(1.00, 0.00, -0.00, -1.00, 317.7, 326.8)">i</text><text xml:space="preserve" font-family="Helvetica-Light,Helvetica" font-size="60.0" fill="#FEFFFF" transform="matrix(1.00, 0.00, -0.00, -1.00, 331.1, 326.8)">v</text><text xml:space="preserve" font-family="Helvetica-Light,Helvetica" font-size="60.0" fill="#FEFFFF" transform="matrix(1.00, 0.00, -0.00, -1.00, 361.1, 326.8)">e</text><text xml:space="preserve" font-family="Helvetica-Light,Helvetica" font-size="60.0" fill="#FEFFFF" transform="matrix(1.00, 0.00, -0.00, -1.00, 394.4, 326.8)">-</text><text xml:space="preserve" font-family="Helvetica-Light,Helvetica" font-size="60.0" fill="#FEFFFF" transform="matrix(1.00, 0.00, -0.00, -1.00, 414.4, 326.8)">p</text><text xml:space="preserve" font-family="Helvetica-Light,Helvetica" font-size="60.0" fill="#FEFFFF" transform="matrix(1.00, 0.00, -0.00, -1.00, 451.1, 326.8)">i</text><text xml:space="preserve" font-family="Helvetica-Light,Helvetica" font-size="60.0" fill="#FEFFFF" transform="matrix(1.00, 0.00, -0.00, -1.00, 464.4, 326.8)">t</text><text xml:space="preserve" font-family="Helvetica-Light,Helvetica" font-size="60.0" fill="#FEFFFF" transform="matrix(1.00, 0.00, -0.00, -1.00, 481.1, 326.8)">c</text><text xml:space="preserve" font-family="Helvetica-Light,Helvetica" font-size="60.0" fill="#FEFFFF" transform="matrix(1.00, 0.00, -0.00, -1.00, 514.4, 326.8)">h</text><text xml:space="preserve" font-family="Helvetica-Light,Helvetica" font-size="60.0" fill="#FEFFFF" transform="matrix(1.00, 0.00, -0.00, -1.00, 547.8, 326.8)"> </text><text xml:space="preserve" font-family="Helvetica-Light,Helvetica" font-size="60.0" fill="#FEFFFF" transform="matrix(1.00, 0.00, -0.00, -1.00, 564.5, 326.8)">k</text><text xml:space="preserve" font-family="Helvetica-Light,Helvetica" font-size="60.0" fill="#FEFFFF" transform="matrix(1.00, 0.00, -0.00, -1.00, 594.5, 326.8)">e</text><text xml:space="preserve" font-family="Helvetica-Light,Helvetica" font-size="60.0" fill="#FEFFFF" transform="matrix(1.00, 0.00, -0.00, -1.00, 627.8, 326.8)">y</text><text xml:space="preserve" font-family="Helvetica-Light,Helvetica" font-size="60.0" fill="#FEFFFF" transform="matrix(1.00, 0.00, -0.00, -1.00, 657.8, 326.8)"> </text><image xlink:href="../../77EC243D-0C10-4669-A938-6F48CDBF5E28/assets/5A5B7CCBEF6779CAD040B90B6D74CFF4.png" width="27.00" height="27.00" transform="matrix(1.00, 0.00, -0.00, -1.00, 135.0, 237.0)"></image><text xml:space="preserve" font-family="Helvetica-Light,Helvetica" font-size="45.0" fill="#FEFFFF" transform="matrix(1.00, 0.00, -0.00, -1.00, 137.0, 215.3)">•</text><image xlink:href="../../77EC243D-0C10-4669-A938-6F48CDBF5E28/assets/16ED64EAB1476CFB80403784AB9E4378.png" width="127.00" height="54.00" transform="matrix(1.00, 0.00, -0.00, -1.00, 180.0, 250.0)"></image><text xml:space="preserve" font-family="Helvetica-Light,Helvetica" font-size="60.0" fill="#FEFFFF" transform="matrix(1.00, 0.00, -0.00, -1.00, 181.0, 209.8)">M</text><text xml:space="preserve" font-family="Helvetica-Light,Helvetica" font-size="60.0" fill="#FEFFFF" transform="matrix(1.00, 0.00, -0.00, -1.00, 231.0, 209.8)">I</text><text xml:space="preserve" font-family="Helvetica-Light,Helvetica" font-size="60.0" fill="#FEFFFF" transform="matrix(1.00, 0.00, -0.00, -1.00, 247.7, 209.8)">D</text><text xml:space="preserve" font-family="Helvetica-Light,Helvetica" font-size="60.0" fill="#FEFFFF" transform="matrix(1.00, 0.00, -0.00, -1.00, 291.0, 209.8)">I</text><text xml:space="preserve" font-family="Helvetica-Light,Helvetica" font-size="60.0" fill="#FEFFFF" transform="matrix(1.00, 0.00, -0.00, -1.00, 307.7, 209.8)"> </text><image xlink:href="../../77EC243D-0C10-4669-A938-6F48CDBF5E28/assets/4E75BA23FCE562E4BCD3B2F016B0A22C.png" width="251.00" height="55.00" transform="matrix(1.00, 0.00, -0.00, -1.00, 322.0, 250.0)"></image><text xml:space="preserve" font-family="Helvetica-Light,Helvetica" font-size="59.0" fill="#FEFFFF" transform="matrix(1.00, 0.00, -0.00, -1.00, 324.3, 209.8)">c</text><text xml:space="preserve" font-family="Helvetica-Light,Helvetica" font-size="59.0" fill="#FEFFFF" transform="matrix(1.00, 0.00, -0.00, -1.00, 357.1, 209.8)">o</text><text xml:space="preserve" font-family="Helvetica-Light,Helvetica" font-size="59.0" fill="#FEFFFF" transform="matrix(1.00, 0.00, -0.00, -1.00, 389.9, 209.8)">n</text><text xml:space="preserve" font-family="Helvetica-Light,Helvetica" font-size="59.0" fill="#FEFFFF" transform="matrix(1.00, 0.00, -0.00, -1.00, 422.8, 209.8)">t</text><text xml:space="preserve" font-family="Helvetica-Light,Helvetica" font-size="59.0" fill="#FEFFFF" transform="matrix(1.00, 0.00, -0.00, -1.00, 439.2, 209.8)">r</text><text xml:space="preserve" font-family="Helvetica-Light,Helvetica" font-size="59.0" fill="#FEFFFF" transform="matrix(1.00, 0.00, -0.00, -1.00, 457.7, 209.8)">o</text><text xml:space="preserve" font-family="Helvetica-Light,Helvetica" font-size="59.0" fill="#FEFFFF" transform="matrix(1.00, 0.00, -0.00, -1.00, 490.5, 209.8)">l</text><text xml:space="preserve" font-family="Helvetica-Light,Helvetica" font-size="59.0" fill="#FEFFFF" transform="matrix(1.00, 0.00, -0.00, -1.00, 503.6, 209.8)">l</text><text xml:space="preserve" font-family="Helvetica-Light,Helvetica" font-size="59.0" fill="#FEFFFF" transform="matrix(1.00, 0.00, -0.00, -1.00, 516.7, 209.8)">e</text><text xml:space="preserve" font-family="Helvetica-Light,Helvetica" font-size="59.0" fill="#FEFFFF" transform="matrix(1.00, 0.00, -0.00, -1.00, 549.5, 209.8)">r</text><image xlink:href="../../77EC243D-0C10-4669-A938-6F48CDBF5E28/assets/9ECE11D569CF07D720D1FD0787ABDC5D.png" width="557.00" height="824.00" transform="matrix(1.00, 0.00, -0.00, -1.00, 1133.5, 863.3)" opacity="0.90"></image><image xlink:href="../../77EC243D-0C10-4669-A938-6F48CDBF5E28/assets/1DCA1494442CAF5FEF1403527C8F7396.png" width="2048.00" height="3072.00" transform="matrix(0.26, 0.00, -0.00, -0.26, 1145.5, 865.8)"></image></g></svg>