<?xml version="1.0" encoding="UTF-8" standalone="no"?><svg xmlns="http://www.w3.org/2000/svg" xmlns:xlink="http://www.w3.org/1999/xlink" clip-rule="evenodd" stroke-miterlimit="10" viewBox="0 0 419 92"><desc>SVG generated by Keynote</desc><defs></defs><g transform="matrix(1.00, 0.00, -0.00, -1.00, 0.0, 92.0)"><image xlink:href="4279B4AF772DDA4C5988EE993970BC4B.png" width="416.00" height="88.00" transform="matrix(1.00, 0.00, -0.00, -1.00, 2.0, 89.0)"></image><text xml:space="preserve" font-family="Helvetica-Light,Helvetica" font-size="84.0" fill="#FEFFFF" transform="matrix(1.00, 0.00, -0.00, -1.00, -4.2, 30.3)">E</text><text xml:space="preserve" font-family="Helvetica-Light,Helvetica" font-size="84.0" fill="#FEFFFF" transform="matrix(1.00, 0.00, -0.00, -1.00, 47.1, 30.3)">m</text><text xml:space="preserve" font-family="Helvetica-Light,Helvetica" font-size="84.0" fill="#FEFFFF" transform="matrix(1.00, 0.00, -0.00, -1.00, 117.1, 30.3)">i</text><text xml:space="preserve" font-family="Helvetica-Light,Helvetica" font-size="84.0" fill="#FEFFFF" transform="matrix(1.00, 0.00, -0.00, -1.00, 135.8, 30.3)">l</text><text xml:space="preserve" font-family="Helvetica-Light,Helvetica" font-size="84.0" fill="#FEFFFF" transform="matrix(1.00, 0.00, -0.00, -1.00, 154.4, 30.3)">y</text><text xml:space="preserve" font-family="Helvetica-Light,Helvetica" font-size="84.0" fill="#FEFFFF" transform="matrix(1.00, 0.00, -0.00, -1.00, 196.4, 30.3)"> </text><text xml:space="preserve" font-family="Helvetica-Light,Helvetica" font-size="84.0" fill="#FEFFFF" transform="matrix(1.00, 0.00, -0.00, -1.00, 219.8, 30.3)">R</text><text xml:space="preserve" font-family="Helvetica-Light,Helvetica" font-size="84.0" fill="#FEFFFF" transform="matrix(1.00, 0.00, -0.00, -1.00, 275.8, 30.3)">o</text><text xml:space="preserve" font-family="Helvetica-Light,Helvetica" font-size="84.0" fill="#FEFFFF" transform="matrix(1.00, 0.00, -0.00, -1.00, 322.5, 30.3)">s</text><text xml:space="preserve" font-family="Helvetica-Light,Helvetica" font-size="84.0" fill="#FEFFFF" transform="matrix(1.00, 0.00, -0.00, -1.00, 364.5, 30.3)">e</text></g></svg>