<?xml version="1.0" encoding="UTF-8" standalone="no"?><svg xmlns="http://www.w3.org/2000/svg" xmlns:xlink="http://www.w3.org/1999/xlink" clip-rule="evenodd" stroke-miterlimit="10" viewBox="0 0 415 62"><desc>SVG generated by Keynote</desc><defs></defs><g transform="matrix(1.00, 0.00, -0.00, -1.00, 0.0, 62.0)"><image xlink:href="06433682E6E48EA498CA5185E339A307.png" width="412.00" height="58.00" transform="matrix(1.00, 0.00, -0.00, -1.00, 2.0, 59.0)"></image><text xml:space="preserve" font-family="Helvetica-Light,Helvetica" font-size="54.0" fill="#FEFFFF" transform="matrix(1.00, 0.00, -0.00, -1.00, 0.4, 20.4)">S</text><text xml:space="preserve" font-family="Helvetica-Light,Helvetica" font-size="54.0" fill="#FEFFFF" transform="matrix(1.00, 0.00, -0.00, -1.00, 33.4, 20.4)">a</text><text xml:space="preserve" font-family="Helvetica-Light,Helvetica" font-size="54.0" fill="#FEFFFF" transform="matrix(1.00, 0.00, -0.00, -1.00, 63.4, 20.4)">u</text><text xml:space="preserve" font-family="Helvetica-Light,Helvetica" font-size="54.0" fill="#FEFFFF" transform="matrix(1.00, 0.00, -0.00, -1.00, 93.4, 20.4)">c</text><text xml:space="preserve" font-family="Helvetica-Light,Helvetica" font-size="54.0" fill="#FEFFFF" transform="matrix(1.00, 0.00, -0.00, -1.00, 123.4, 20.4)">e</text><text xml:space="preserve" font-family="Helvetica-Light,Helvetica" font-size="54.0" fill="#FEFFFF" transform="matrix(1.00, 0.00, -0.00, -1.00, 153.5, 20.4)"> </text><text xml:space="preserve" font-family="Helvetica-Light,Helvetica" font-size="54.0" fill="#FEFFFF" transform="matrix(1.00, 0.00, -0.00, -1.00, 168.5, 20.4)">L</text><text xml:space="preserve" font-family="Helvetica-Light,Helvetica" font-size="54.0" fill="#FEFFFF" transform="matrix(1.00, 0.00, -0.00, -1.00, 198.5, 20.4)">a</text><text xml:space="preserve" font-family="Helvetica-Light,Helvetica" font-size="54.0" fill="#FEFFFF" transform="matrix(1.00, 0.00, -0.00, -1.00, 228.5, 20.4)">b</text><text xml:space="preserve" font-family="Helvetica-Light,Helvetica" font-size="54.0" fill="#FEFFFF" transform="matrix(1.00, 0.00, -0.00, -1.00, 261.5, 20.4)">s</text><text xml:space="preserve" font-family="Helvetica-Light,Helvetica" font-size="54.0" fill="#FEFFFF" transform="matrix(1.00, 0.00, -0.00, -1.00, 288.5, 20.4)">,</text><text xml:space="preserve" font-family="Helvetica-Light,Helvetica" font-size="54.0" fill="#FEFFFF" transform="matrix(1.00, 0.00, -0.00, -1.00, 303.5, 20.4)"> </text><text xml:space="preserve" font-family="Helvetica-Light,Helvetica" font-size="54.0" fill="#FEFFFF" transform="matrix(1.00, 0.00, -0.00, -1.00, 318.5, 20.4)">I</text><text xml:space="preserve" font-family="Helvetica-Light,Helvetica" font-size="54.0" fill="#FEFFFF" transform="matrix(1.00, 0.00, -0.00, -1.00, 333.6, 20.4)">n</text><text xml:space="preserve" font-family="Helvetica-Light,Helvetica" font-size="54.0" fill="#FEFFFF" transform="matrix(1.00, 0.00, -0.00, -1.00, 363.6, 20.4)">c</text><text xml:space="preserve" font-family="Helvetica-Light,Helvetica" font-size="54.0" fill="#FEFFFF" transform="matrix(1.00, 0.00, -0.00, -1.00, 393.6, 20.4)">.</text></g></svg>